<svg width="24" height="24" viewBox="0 0 24 24" fill="none" xmlns="http://www.w3.org/2000/svg">
<path d="M0 0.409424H11.4185C11.4185 4.07683 11.4185 7.74424 11.4185 11.4116C7.61235 11.4116 3.80617 11.4116 0 11.4116V0.409424Z" fill="#F25022"/>
<path d="M12.5814 0.409424H23.9999C23.9999 4.07683 23.9999 7.74424 23.9999 11.4116C20.1938 11.4116 16.3876 11.4116 12.5814 11.4116C12.5814 7.74424 12.5814 4.07683 12.5814 0.409424Z" fill="#80BA01"/>
<path d="M0 12.5304C3.80617 12.5304 7.61235 12.5304 11.4185 12.5304C11.4185 16.1978 11.4185 19.8652 11.4185 23.5326H0V12.5304Z" fill="#02A4EF"/>
<path d="M12.5814 12.5304C16.3876 12.5304 20.1938 12.5304 23.9999 12.5304C23.9999 16.1978 23.9999 19.8652 23.9999 23.5326H12.5814C12.5814 19.8652 12.5814 16.1978 12.5814 12.5304Z" fill="#FFB902"/>
</svg>
